<svg width="16" height="15" viewBox="0 0 16 15" fill="none" xmlns="http://www.w3.org/2000/svg">
<path d="M14.2714 2.35756V12.5847C14.2714 13.9642 15.412 13.9456 16 13.9456V14.2004H10.7038V13.9473C11.3289 13.9473 12.3218 13.8925 12.3218 12.6235V2.17362L7.7427 14.2004H7.50311L2.50132 1.82431V11.2608C2.50132 13.339 3.9169 13.9473 4.72424 13.9473V14.2004H0V13.9473C0.882421 13.9473 2.26173 13.3955 2.26173 11.2802V2.26559C2.26173 1.05144 0.882421 1.07 0.574502 1.07V0.757812H4.267L8.60487 11.1866L12.5614 0.757812H15.7427V1.01516C14.3415 1.01516 14.2714 1.82431 14.2714 2.35756Z" fill="#191918"/>
</svg>
