<svg width="20" height="20" viewBox="0 0 20 20" fill="none" xmlns="http://www.w3.org/2000/svg">
<g clip-path="url(#clip0)">
<path d="M4.82713 10.5488L14.0777 19.7738C14.3808 20.0759 14.8715 20.0754 15.1741 19.7723C15.4764 19.4692 15.4756 18.9782 15.1725 18.6759L6.47255 9.99997L15.1728 1.32406C15.4759 1.02172 15.4767 0.531057 15.1744 0.227934C15.0227 0.0759811 14.824 3.8147e-06 14.6253 3.8147e-06C14.4271 3.8147e-06 14.2292 0.0754738 14.0778 0.226372L4.82713 9.45114C4.68115 9.59637 4.59924 9.79403 4.59924 9.99997C4.59924 10.2059 4.68139 10.4033 4.82713 10.5488Z" fill="white"/>
</g>
<defs>
<clipPath id="clip0">
<rect width="20" height="20" fill="white" transform="translate(20 20) rotate(-180)"/>
</clipPath>
</defs>
</svg>
