<svg width="25" height="25" viewBox="0 0 25 25" fill="none" xmlns="http://www.w3.org/2000/svg">
<path d="M23.2468 5.91063H17.9049V0.821859C17.9049 0.595677 17.7214 0.412109 17.4952 0.412109H7.50383C7.27765 0.412109 7.09408 0.595677 7.09408 0.821859V5.91063H1.75291C1.53984 5.91063 1.3602 6.07715 1.34447 6.28957L0.00114584 24.1488C-0.00737697 24.2622 0.031959 24.375 0.108664 24.4569C0.185369 24.5408 0.294855 24.5887 0.409585 24.5887H24.5907C24.7055 24.5887 24.815 24.5408 24.891 24.4576C24.9684 24.375 25.0077 24.2622 24.9992 24.1481L23.6559 6.28957C23.6401 6.07715 23.4605 5.91063 23.2468 5.91063ZM17.4952 8.50746C17.7023 8.50746 17.8708 8.67529 17.8708 8.88115C17.8708 9.08767 17.7023 9.25616 17.4952 9.25616C17.288 9.25616 17.1195 9.08767 17.1195 8.88115C17.1195 8.67529 17.288 8.50746 17.4952 8.50746ZM7.91358 1.23227H17.0854V5.91128H7.91358V1.23227ZM7.50383 8.50746C7.711 8.50746 7.87949 8.67529 7.87949 8.88115C7.87949 9.08767 7.711 9.25616 7.50383 9.25616C7.29666 9.25616 7.12817 9.08767 7.12817 8.88115C7.12817 8.67529 7.29666 8.50746 7.50383 8.50746ZM0.850803 23.7698L2.1325 6.73078H7.09408V7.76532C6.63713 7.93315 6.30867 8.36847 6.30867 8.88181C6.30867 9.54069 6.84496 10.0763 7.50383 10.0763C8.16271 10.0763 8.69899 9.54069 8.69899 8.88181C8.69899 8.36847 8.37054 7.93315 7.91358 7.76532V6.73078H17.0854V7.76532C16.6285 7.93315 16.3 8.36847 16.3 8.88181C16.3 9.54069 16.8363 10.0763 17.4952 10.0763C18.1541 10.0763 18.6903 9.54069 18.6903 8.88181C18.6903 8.36847 18.3619 7.93315 17.9049 7.76532V6.73078H22.8672L24.1489 23.7698H0.850803Z" fill="#4F4F4F"/>
</svg>
