<svg width="35" height="35" viewBox="0 0 35 35" fill="none" xmlns="http://www.w3.org/2000/svg">
<path d="M20.7065 17.5003L34.3348 3.87126C35.2217 2.98476 35.2217 1.55139 34.3348 0.664882C33.4483 -0.221627 32.015 -0.221627 31.1285 0.664882L17.4998 14.2939L3.8715 0.664882C2.98459 -0.221627 1.55167 -0.221627 0.66518 0.664882C-0.221727 1.55139 -0.221727 2.98476 0.66518 3.87126L14.2935 17.5003L0.66518 31.1293C-0.221727 32.0158 -0.221727 33.4491 0.66518 34.3356C1.10697 34.7779 1.68786 35 2.26834 35C2.84881 35 3.42929 34.7779 3.8715 34.3356L17.4998 20.7066L31.1285 34.3356C31.5707 34.7779 32.1512 35 32.7317 35C33.3121 35 33.8926 34.7779 34.3348 34.3356C35.2217 33.4491 35.2217 32.0158 34.3348 31.1293L20.7065 17.5003Z" fill="white"/>
</svg>
