<svg width="21" height="25" viewBox="0 0 21 25" fill="none" xmlns="http://www.w3.org/2000/svg">
<path d="M18.3594 3.125H14.0625V2.34375C14.0625 1.05142 13.0111 0 11.7188 0H8.59375C7.30142 0 6.25 1.05142 6.25 2.34375V3.125H1.95312C0.876172 3.125 0 4.00117 0 5.07812V7.8125C0 8.24395 0.349805 8.59375 0.78125 8.59375H1.2082L1.88315 22.7677C1.94277 24.0195 2.97109 25 4.22422 25H16.0883C17.3415 25 18.3698 24.0195 18.4293 22.7677L19.1043 8.59375H19.5312C19.9627 8.59375 20.3125 8.24395 20.3125 7.8125V5.07812C20.3125 4.00117 19.4363 3.125 18.3594 3.125ZM7.8125 2.34375C7.8125 1.91299 8.16299 1.5625 8.59375 1.5625H11.7188C12.1495 1.5625 12.5 1.91299 12.5 2.34375V3.125H7.8125V2.34375ZM1.5625 5.07812C1.5625 4.86274 1.73774 4.6875 1.95312 4.6875H18.3594C18.5748 4.6875 18.75 4.86274 18.75 5.07812V7.03125C18.5092 7.03125 2.56021 7.03125 1.5625 7.03125V5.07812ZM16.8686 22.6934C16.8487 23.1106 16.506 23.4375 16.0883 23.4375H4.22422C3.80649 23.4375 3.46372 23.1106 3.4439 22.6934L2.77246 8.59375H17.54L16.8686 22.6934Z" fill="#4F4F4F"/>
<path d="M10.1562 21.875C10.5877 21.875 10.9375 21.5252 10.9375 21.0938V10.9375C10.9375 10.5061 10.5877 10.1562 10.1562 10.1562C9.7248 10.1562 9.375 10.5061 9.375 10.9375V21.0938C9.375 21.5252 9.72476 21.875 10.1562 21.875Z" fill="#4F4F4F"/>
<path d="M14.0625 21.875C14.4939 21.875 14.8438 21.5252 14.8438 21.0938V10.9375C14.8438 10.5061 14.4939 10.1562 14.0625 10.1562C13.6311 10.1562 13.2812 10.5061 13.2812 10.9375V21.0938C13.2812 21.5252 13.631 21.875 14.0625 21.875Z" fill="#4F4F4F"/>
<path d="M6.25 21.875C6.68145 21.875 7.03125 21.5252 7.03125 21.0938V10.9375C7.03125 10.5061 6.68145 10.1562 6.25 10.1562C5.81855 10.1562 5.46875 10.5061 5.46875 10.9375V21.0938C5.46875 21.5252 5.81851 21.875 6.25 21.875Z" fill="#4F4F4F"/>
</svg>
