<svg width="20" height="20" viewBox="0 0 20 20" fill="none" xmlns="http://www.w3.org/2000/svg">
<path d="M12.3511 3.35938L1.3468 14.3645C1.29144 14.42 1.25146 14.4901 1.23242 14.5654L0.0127046 19.4611C-0.0237807 19.6085 0.0195258 19.7652 0.127078 19.8728C0.208456 19.9542 0.31934 19.9992 0.432762 19.9992C0.467502 19.9992 0.503035 19.9949 0.537617 19.9862L5.43331 18.7663C5.50961 18.7473 5.57893 18.7075 5.6343 18.6521L16.6395 7.64783L12.3511 3.35938Z" fill="white"/>
<path d="M19.3659 1.8587L18.141 0.633746C17.3223 -0.184952 15.8954 -0.184159 15.0776 0.633746L13.5771 2.13424L17.8654 6.42254L19.3659 4.92204C19.7749 4.51324 20.0001 3.96914 20.0001 3.39045C20.0001 2.81176 19.7749 2.26765 19.3659 1.8587Z" fill="white"/>
</svg>
