<svg width="25" height="20" viewBox="0 0 25 20" fill="none" xmlns="http://www.w3.org/2000/svg">
<path d="M18.4896 0C15.7166 0 13.4262 2.24787 12.5 3.30877C11.5738 2.24787 9.28345 0 6.5104 0C2.92056 0 0 2.88042 0 6.42046C0 8.35183 0.878418 10.1518 2.41597 11.3836C2.43833 11.4174 2.46582 11.4484 2.49785 11.4764L12.1323 19.8673C12.234 19.9556 12.3667 20 12.5 20C12.6333 20 12.7665 19.9556 12.8683 19.8668L22.8231 11.1821L22.9258 11.0951C23.0072 11.0281 23.0876 10.9601 23.1776 10.8732C23.2152 10.8408 23.2462 10.8043 23.2702 10.7648C24.3866 9.57165 25 8.03266 25 6.42046C25 2.88042 22.0795 0 18.4896 0ZM22.4035 10.2535C22.3892 10.2681 22.376 10.2836 22.3643 10.2996C22.3155 10.3485 22.2621 10.3915 22.2092 10.4355L12.4995 18.9031L3.35288 10.9366C3.32339 10.886 3.28218 10.8398 3.23184 10.8012C1.8397 9.74031 1.04165 8.14362 1.04165 6.42046C1.04165 3.38156 3.49477 0.909118 6.5104 0.909118C9.49199 0.909118 12.0366 4.30312 12.0621 4.3373C12.2543 4.59651 12.7457 4.59651 12.9379 4.3373C12.9634 4.30312 15.508 0.909118 18.4896 0.909118C21.5052 0.909118 23.9583 3.3816 23.9583 6.42046C23.9583 7.85245 23.406 9.21387 22.4035 10.2535Z" fill="#4F4F4F"/>
</svg>
