<svg width="25" height="25" viewBox="0 0 25 25" fill="none" xmlns="http://www.w3.org/2000/svg">
<path d="M12.3086 8.54048L15.8873 12.1192L15.9044 11.9318C15.9044 10.0515 14.3763 8.52344 12.4961 8.52344L12.3086 8.54048Z" fill="white"/>
<path d="M12.4961 6.2504C15.6317 6.2504 18.1766 8.7953 18.1766 11.9309C18.1766 12.6637 18.0289 13.3624 17.7733 14.0043L21.0964 17.3274C22.8119 15.8959 24.1639 14.0441 24.999 11.9309C23.0278 6.94346 18.1823 3.41016 12.4961 3.41016C10.9056 3.41016 9.3832 3.69416 7.96875 4.20541L10.4227 6.6537C11.0646 6.40378 11.7633 6.2504 12.4961 6.2504Z" fill="white"/>
<path d="M1.13609 3.15557L3.72641 5.74589L4.24335 6.26283C2.36878 7.72841 0.886162 9.67685 0 11.932C1.96548 16.9195 6.81663 20.4528 12.4972 20.4528C14.2582 20.4528 15.9396 20.1119 17.479 19.4927L17.9619 19.9756L21.2736 23.293L22.7222 21.8502L2.58462 1.70703L1.13609 3.15557ZM7.41879 9.43257L9.17407 11.1878C9.12294 11.4321 9.08886 11.6764 9.08886 11.932C9.08886 13.8123 10.6169 15.3403 12.4972 15.3403C12.7528 15.3403 12.9971 15.3062 13.2357 15.2551L14.9909 17.0104C14.2354 17.3853 13.3947 17.6125 12.4972 17.6125C9.36153 17.6125 6.81663 15.0676 6.81663 11.932C6.81663 11.0345 7.04387 10.1937 7.41879 9.43257Z" fill="white"/>
</svg>
