<svg width="20" height="20" viewBox="0 0 20 20" fill="none" xmlns="http://www.w3.org/2000/svg">
<g clip-path="url(#clip0)">
<path d="M9.99875 7.27295C8.4942 7.27295 7.27148 8.49566 7.27148 10.0002C7.27148 11.5048 8.4942 12.7275 9.99875 12.7275C11.5033 12.7275 12.726 11.5048 12.726 10.0002C12.726 8.49566 11.5033 7.27295 9.99875 7.27295Z" fill="white"/>
<path d="M10 3.18213C5.45455 3.18213 1.57274 6.00938 0 10.0003C1.57274 13.9912 5.45455 16.8185 10 16.8185C14.55 16.8185 18.4273 13.9912 20 10.0003C18.4273 6.00938 14.55 3.18213 10 3.18213ZM10 14.5457C7.49093 14.5457 5.45455 12.5094 5.45455 10.0003C5.45455 7.49118 7.49093 5.45484 10 5.45484C12.5091 5.45484 14.5455 7.49122 14.5455 10.0003C14.5455 12.5094 12.5091 14.5457 10 14.5457Z" fill="white"/>
</g>
<defs>
<clipPath id="clip0">
<rect width="20" height="20" rx="5" fill="white"/>
</clipPath>
</defs>
</svg>
