<svg width="25" height="25" viewBox="0 0 25 25" fill="none" xmlns="http://www.w3.org/2000/svg">
<g clip-path="url(#clip0)">
<path d="M12.5 7.34863C9.65958 7.34863 7.34863 9.65958 7.34863 12.5C7.34863 15.3404 9.65958 17.6514 12.5 17.6514C15.3404 17.6514 17.6514 15.3404 17.6514 12.5C17.6514 9.65958 15.3406 7.34863 12.5 7.34863Z" fill="white"/>
<path d="M22.481 2.51904C20.8565 0.894547 18.705 0 16.4227 0H8.57735C6.29501 0 4.14333 0.894547 2.51904 2.51904C0.894547 4.14333 0 6.29501 0 8.57735V16.4225C0 18.705 0.894547 20.8567 2.51904 22.481C4.14333 24.1055 6.29501 25 8.57735 25H16.4227C18.705 25 20.8567 24.1055 22.481 22.481C24.1053 20.8567 25 18.705 25 16.4225V8.57735C25 6.29501 24.1053 4.14333 22.481 2.51904ZM12.5 19.1162C8.85181 19.1162 5.88379 16.1482 5.88379 12.5C5.88379 8.85181 8.85181 5.88379 12.5 5.88379C16.1482 5.88379 19.1162 8.85181 19.1162 12.5C19.1162 16.1482 16.1482 19.1162 12.5 19.1162ZM19.8296 6.20632C19.6934 6.34251 19.5044 6.42071 19.3117 6.42071C19.1189 6.42071 18.9302 6.34251 18.7941 6.20632C18.6573 6.06995 18.5793 5.88112 18.5793 5.68829C18.5793 5.49545 18.6573 5.30643 18.7941 5.17025C18.9302 5.03387 19.1187 4.95586 19.3117 4.95586C19.5044 4.95586 19.6934 5.03387 19.8296 5.17025C19.9659 5.30643 20.0441 5.49545 20.0441 5.68829C20.0441 5.88093 19.9659 6.06995 19.8296 6.20632Z" fill="white"/>
</g>
<defs>
<clipPath id="clip0">
<rect width="25" height="25" fill="white"/>
</clipPath>
</defs>
</svg>
