<svg width="85" height="48" viewBox="0 0 85 48" fill="none" xmlns="http://www.w3.org/2000/svg">
<g clip-path="url(#clip0)">
<path d="M34.8449 4.66374V29.634C34.8449 33.0023 37.6297 32.957 39.0654 32.957V33.5791H26.1342V32.9611C27.6605 32.9611 30.0848 32.8272 30.0848 29.7288V4.21464L18.9045 33.5791H18.3195L6.10718 3.36176V26.4018C6.10718 31.4758 9.56345 32.9611 11.5346 32.9611V33.5791H0V32.9611C2.15451 32.9611 5.52221 31.6138 5.52221 26.4491V4.43919C5.52221 1.47472 2.15451 1.52004 1.40269 1.52004V0.757812H10.4183L21.0095 26.2205L30.6698 0.757812H38.4371V1.38614C35.0159 1.38614 34.8449 3.36176 34.8449 4.66374Z" fill="#191918"/>
<path d="M59.0018 32.5082C52.7154 36.237 43.6896 32.1498 43.6896 32.1498L44.3075 25.0981H44.8471C45.1623 32.0591 51.7618 34.2614 54.734 33.2725C57.8236 32.2425 58.8206 27.6135 57.0244 24.9189C55.0491 21.9997 51.321 20.2033 48.2231 18.4976C45.3518 16.8351 43.3312 13.7367 43.3765 10.5065C44.7675 10.9103 46.1592 11.2694 47.5516 11.5839C48.4044 13.4257 50.2005 14.6844 51.9966 15.6711C54.3777 16.9752 56.7114 18.1865 58.6887 20.1168C62.9092 24.1031 62.4602 30.444 59.0018 32.5082ZM62.9154 20.8317C60.9401 17.8672 57.1666 16.1161 54.114 14.3651C51.1953 12.7479 49.1706 9.60419 49.2633 6.33072C49.3539 3.85861 51.4198 1.56986 53.7947 0.716984C59.6774 -1.3946 66.592 1.92831 66.592 1.92831L66.0091 8.97999H65.4262C64.9298 1.4751 57.6094 -0.411943 54.7896 1.07132C52.9935 2.06016 52.4992 4.70943 53.0821 6.63355C53.7556 8.96969 55.8215 10.4509 57.8875 11.5778C60.2686 12.8818 62.6023 14.0931 64.5776 15.9802C67.0493 18.3596 67.9453 21.5424 67.4963 24.1525L63.7702 23.1657C63.6544 22.3348 63.3607 21.5387 62.9092 20.8317H62.9154Z" fill="#191918"/>
<path d="M85.0001 0.47588C83.3832 0.47588 81.6324 0.73339 81.6324 3.19107V20.6009C81.6324 22.9473 82.0814 33.9914 70.9917 33.9914V33.5506C77.3666 33.5155 77.0082 20.4979 77.0082 20.4979V3.09013C77.0082 0.597425 74.8517 0.48618 73.5952 0.48618V0H85.0001V0.47588Z" fill="#191918"/>
<path d="M2.26573 46.4752C1.99897 46.4839 1.73329 46.4375 1.48523 46.3389C1.23718 46.2404 1.01206 46.0919 0.8239 45.9025C0.457853 45.5215 0.253418 45.0136 0.253418 44.4852C0.253418 43.9568 0.457853 43.4489 0.8239 43.0679C1.01206 42.8785 1.23718 42.73 1.48523 42.6315C1.73329 42.5329 1.99897 42.4865 2.26573 42.4952C2.61841 42.4909 2.96568 42.582 3.27089 42.7588C3.55441 42.9215 3.77932 43.1695 3.91354 43.4675L3.60251 43.6509C3.4949 43.4104 3.31581 43.209 3.08963 43.074C2.83899 42.9313 2.55403 42.8601 2.26573 42.868C2.05258 42.868 1.84152 42.91 1.6446 42.9916C1.44768 43.0732 1.26875 43.1928 1.11803 43.3435C0.967315 43.4942 0.84776 43.6732 0.766192 43.8702C0.684624 44.0671 0.642641 44.2782 0.642641 44.4914C0.642641 44.7046 0.684624 44.9157 0.766192 45.1126C0.84776 45.3096 0.967315 45.4885 1.11803 45.6393C1.26875 45.79 1.44768 45.9096 1.6446 45.9912C1.84152 46.0727 2.05258 46.1147 2.26573 46.1147C2.55403 46.1227 2.83899 46.0514 3.08963 45.9087C3.32367 45.7695 3.5125 45.5656 3.63341 45.3216L3.95267 45.5132C3.79895 45.8095 3.56197 46.0544 3.27089 46.2177C2.96469 46.3914 2.61772 46.4803 2.26573 46.4752Z" fill="#191918"/>
<path d="M5.32446 46.3913V40.8291H5.70552V46.3913H5.32446Z" fill="#191918"/>
<path d="M9.15766 46.4754C8.8941 46.4802 8.6323 46.4315 8.38804 46.3324C8.14379 46.2333 7.92213 46.0857 7.73643 45.8986C7.36311 45.523 7.15356 45.015 7.15356 44.4854C7.15356 43.9558 7.36311 43.4477 7.73643 43.0722C8.1154 42.7022 8.62397 42.4951 9.15354 42.4951C9.6831 42.4951 10.1917 42.7022 10.5706 43.0722C10.945 43.4472 11.1552 43.9555 11.1552 44.4854C11.1552 45.0153 10.945 45.5236 10.5706 45.8986C10.3865 46.0855 10.1663 46.233 9.92337 46.3321C9.68048 46.4313 9.41997 46.48 9.15766 46.4754ZM8.01037 45.637C8.15901 45.7901 8.33757 45.911 8.53495 45.9922C8.73233 46.0734 8.94429 46.113 9.15766 46.1087C9.37014 46.1133 9.58126 46.0737 9.77767 45.9925C9.97408 45.9113 10.1515 45.7902 10.2988 45.637C10.5994 45.3291 10.7678 44.9158 10.7678 44.4854C10.7678 44.055 10.5994 43.6417 10.2988 43.3338C10.1513 43.1802 9.97351 43.059 9.77673 42.9778C9.57994 42.8966 9.36842 42.8572 9.1556 42.862C8.94223 42.8577 8.73027 42.8974 8.53289 42.9785C8.33551 43.0597 8.15695 43.1806 8.00831 43.3338C7.70763 43.6417 7.53929 44.055 7.53929 44.4854C7.53929 44.9158 7.70763 45.3291 8.00831 45.637H8.01037Z" fill="#191918"/>
<path d="M14.478 42.9527H13.341V45.4248C13.3264 45.5916 13.37 45.7584 13.4646 45.8966C13.5124 45.9478 13.5701 45.9888 13.6342 46.0171C13.6982 46.0454 13.7674 46.0605 13.8374 46.0614C14.0512 46.0728 14.2655 46.0659 14.478 46.0408V46.3848C13.9645 46.4617 13.582 46.426 13.3307 46.2777C13.0794 46.1314 12.9538 45.8451 12.9538 45.4248V42.9527H12.1155V42.5798H12.9538V41.626L13.341 41.5127V42.5798H14.478V42.9527Z" fill="#191918"/>
<path d="M17.6706 42.4957C17.8693 42.4855 18.0679 42.5168 18.2538 42.5878C18.4396 42.6587 18.6086 42.7677 18.75 42.9077C18.888 43.0569 18.9949 43.2321 19.0646 43.4231C19.1343 43.6141 19.1652 43.8171 19.1557 44.0201V46.3913H18.7603V44.0201C18.7764 43.7106 18.6715 43.4069 18.4678 43.1734C18.3599 43.0667 18.2309 42.9838 18.0889 42.9302C17.947 42.8766 17.7953 42.8535 17.6439 42.8624C17.4657 42.8563 17.2883 42.8877 17.123 42.9544C16.9576 43.0211 16.8081 43.1217 16.684 43.2497C16.4164 43.5624 16.2825 43.9679 16.3112 44.3786V46.3913H15.926V41.0557H16.3071V43.3032C16.4281 43.0481 16.6225 42.8349 16.8655 42.691C17.1084 42.5471 17.3888 42.4791 17.6706 42.4957Z" fill="#191918"/>
<path d="M21.162 41.5705C21.1068 41.6243 21.0332 41.6553 20.9561 41.657C20.8789 41.6555 20.8052 41.6245 20.7501 41.5705C20.7208 41.5422 20.6977 41.5083 20.6821 41.4707C20.6665 41.4331 20.6588 41.3928 20.6595 41.3521C20.66 41.3134 20.6683 41.2753 20.6839 41.2399C20.6994 41.2045 20.7219 41.1726 20.7501 41.1461C20.8052 41.092 20.8789 41.0611 20.9561 41.0596C21.0332 41.0613 21.1068 41.0922 21.162 41.1461C21.1902 41.1726 21.2127 41.2045 21.2283 41.2399C21.2438 41.2753 21.2521 41.3134 21.2527 41.3521C21.2533 41.3928 21.2456 41.4331 21.23 41.4707C21.2145 41.5083 21.1913 41.5422 21.162 41.5705ZM20.7501 46.3911V42.5799H21.1332V46.3911H20.7501Z" fill="#191918"/>
<path d="M24.5915 42.4956C24.7899 42.4852 24.9883 42.5164 25.1738 42.5874C25.3594 42.6584 25.528 42.7675 25.6688 42.9076C25.8056 43.0566 25.9114 43.2313 25.98 43.4216C26.0486 43.6119 26.0786 43.8139 26.0684 44.016V46.3871H25.6812V44.0201C25.6968 43.7103 25.5911 43.4066 25.3866 43.1734C25.2789 43.0665 25.1498 42.9836 25.0078 42.93C24.8659 42.8764 24.7142 42.8533 24.5627 42.8623C24.3845 42.8562 24.2071 42.8874 24.0417 42.9542C23.8764 43.0209 23.7269 43.1215 23.6029 43.2496C23.3345 43.562 23.1998 43.9676 23.228 44.3785V46.3912H22.8469V42.5801H23.228V43.3032C23.349 43.048 23.5434 42.8348 23.7864 42.6909C24.0293 42.5471 24.3097 42.479 24.5915 42.4956Z" fill="#191918"/>
<path d="M31.0612 42.5802H31.4423V46.208C31.4543 46.4528 31.412 46.6973 31.3183 46.9238C31.2246 47.1504 31.082 47.3534 30.9006 47.5182C30.5261 47.8446 30.0417 48.0169 29.5453 48.0003C29.1573 48.0113 28.7726 47.9272 28.4247 47.7551C28.132 47.6109 27.8937 47.3761 27.745 47.0856L28.0808 46.894C28.3259 47.3864 28.812 47.6336 29.5453 47.6336C29.9523 47.657 30.3521 47.5185 30.6575 47.2483C30.7939 47.1146 30.901 46.954 30.9719 46.7767C31.0428 46.5993 31.076 46.4092 31.0695 46.2183V45.5179C30.9165 45.811 30.6856 46.0563 30.4021 46.2265C30.1082 46.4011 29.7717 46.4909 29.4299 46.4861C28.9022 46.4861 28.3961 46.2764 28.023 45.9032C27.6498 45.53 27.4402 45.0239 27.4402 44.4961C27.4402 43.9683 27.6498 43.4621 28.023 43.0889C28.3961 42.7157 28.9022 42.506 29.4299 42.506C29.7717 42.5013 30.1082 42.5911 30.4021 42.7656C30.6817 42.9354 30.9096 43.1783 31.0612 43.4681V42.5802ZM28.2991 45.6374C28.6042 45.9394 29.0161 46.1089 29.4454 46.1089C29.8746 46.1089 30.2866 45.9394 30.5916 45.6374C30.8923 45.3295 31.0606 44.9162 31.0606 44.4858C31.0606 44.0554 30.8923 43.6421 30.5916 43.3342C30.2866 43.0321 29.8746 42.8627 29.4454 42.8627C29.0161 42.8627 28.6042 43.0321 28.2991 43.3342C27.9984 43.6421 27.8301 44.0554 27.8301 44.4858C27.8301 44.9162 27.9984 45.3295 28.2991 45.6374Z" fill="#191918"/>
<path d="M37.5165 41.3373C36.7585 41.2755 36.3795 41.6189 36.3795 42.3674V42.5734H37.5165V42.9462H36.3795V46.3845H35.9923V42.9524H35.3352V42.5796H35.9923V42.3735C35.9777 42.1752 36.005 41.9761 36.0725 41.7891C36.1399 41.602 36.2459 41.4313 36.3836 41.2879C36.6459 41.0407 37.0235 40.9349 37.5165 40.9706V41.3373Z" fill="#191918"/>
<path d="M40.1301 46.4754C39.8665 46.4806 39.6046 46.4321 39.3603 46.3329C39.1159 46.2338 38.8943 46.086 38.7088 45.8986C38.3355 45.523 38.126 45.015 38.126 44.4854C38.126 43.9558 38.3355 43.4477 38.7088 43.0722C39.0878 42.7022 39.5964 42.4951 40.126 42.4951C40.6555 42.4951 41.1641 42.7022 41.5431 43.0722C41.9164 43.4477 42.1259 43.9558 42.1259 44.4854C42.1259 45.015 41.9164 45.523 41.5431 45.8986C41.3588 46.0853 41.1385 46.2326 40.8957 46.3318C40.6528 46.4309 40.3923 46.4798 40.1301 46.4754ZM38.9828 45.637C39.2872 45.9394 39.6989 46.1091 40.128 46.1091C40.5571 46.1091 40.9688 45.9394 41.2732 45.637C41.5706 45.3273 41.7366 44.9147 41.7366 44.4854C41.7366 44.0561 41.5706 43.6434 41.2732 43.3338C40.9688 43.0314 40.5571 42.8616 40.128 42.8616C39.6989 42.8616 39.2872 43.0314 38.9828 43.3338C38.6821 43.6417 38.5138 44.055 38.5138 44.4854C38.5138 44.9158 38.6821 45.3291 38.9828 45.637Z" fill="#191918"/>
<path d="M43.9553 43.3254C44.0541 43.0735 44.231 42.86 44.4601 42.7161C44.6893 42.5722 44.9585 42.5056 45.2282 42.5261V42.8928C45.0618 42.8881 44.8961 42.9162 44.7406 42.9756C44.5851 43.035 44.4428 43.1245 44.3219 43.2389C44.1924 43.3755 44.0929 43.5378 44.0298 43.7152C43.9667 43.8925 43.9413 44.0812 43.9553 44.2689V46.3887H43.5742V42.5776H43.9553V43.3254Z" fill="#191918"/>
<path d="M50.8142 42.4953C51.0712 42.4869 51.3268 42.5359 51.5623 42.6389C51.7979 42.742 52.0074 42.8963 52.1757 43.0907C52.5197 43.4785 52.7057 43.9814 52.6968 44.4998C52.6968 44.5204 52.6968 44.5513 52.6968 44.5925C52.6968 44.6337 52.6968 44.6625 52.6968 44.6831H49.2282C49.2603 45.0801 49.4448 45.4493 49.7431 45.7131C50.0058 45.9284 50.3255 46.0625 50.6631 46.0991C51.0007 46.1357 51.3416 46.0731 51.6443 45.9192C51.8613 45.804 52.0413 45.6297 52.1634 45.4165L52.4991 45.6225C52.3371 45.8901 52.1049 46.1081 51.8276 46.2529C51.5218 46.4115 51.1813 46.4915 50.8369 46.4857C50.5711 46.4952 50.3062 46.4504 50.0582 46.354C49.8103 46.2577 49.5847 46.1118 49.395 45.9253C49.2081 45.7384 49.0615 45.515 48.9644 45.2691C48.8674 45.0232 48.8218 44.7599 48.8307 44.4956C48.8229 44.2338 48.8677 43.9731 48.9626 43.7289C49.0574 43.4848 49.2002 43.2621 49.3827 43.0742C49.5674 42.8827 49.7903 42.7322 50.0369 42.6325C50.2835 42.5327 50.5484 42.486 50.8142 42.4953ZM50.8142 42.862C50.4135 42.8514 50.0249 42.9995 49.7328 43.274C49.4412 43.5468 49.2638 43.92 49.2364 44.3185H52.3014C52.2836 43.9149 52.1101 43.5338 51.8173 43.2555C51.5464 42.9996 51.1869 42.8586 50.8142 42.862Z" fill="#191918"/>
<path d="M56.7671 42.5801H57.179L55.5703 46.3912H55.1048L53.49 42.5801H53.9019L55.3438 45.9936L56.7671 42.5801Z" fill="#191918"/>
<path d="M59.9595 42.4951C60.2165 42.4866 60.4721 42.5357 60.7076 42.6387C60.9432 42.7417 61.1527 42.8961 61.321 43.0904C61.665 43.4783 61.851 43.9811 61.8422 44.4995C61.8422 44.5201 61.8422 44.551 61.8422 44.5922C61.8422 44.6334 61.8422 44.6623 61.8422 44.6829H58.3818C58.4139 45.0799 58.5984 45.449 58.8967 45.7129C59.1594 45.9282 59.479 46.0623 59.8166 46.0989C60.1542 46.1354 60.4952 46.0729 60.7979 45.9189C61.0149 45.8038 61.1949 45.6295 61.3169 45.4163L61.6506 45.6223C61.49 45.8902 61.2582 46.1084 60.9812 46.2527C60.6754 46.4113 60.3349 46.4913 59.9904 46.4855C59.7246 46.495 59.4597 46.4502 59.2118 46.3538C58.9639 46.2575 58.7382 46.1116 58.5486 45.9251C58.3616 45.7382 58.2151 45.5148 58.118 45.2689C58.0209 45.0229 57.9754 44.7597 57.9842 44.4954C57.9765 44.2336 58.0213 43.9729 58.1161 43.7287C58.2109 43.4845 58.3538 43.2619 58.5362 43.074C58.72 42.8835 58.9416 42.7336 59.1867 42.6339C59.4318 42.5342 59.6951 42.4869 59.9595 42.4951ZM59.9595 42.8618C59.5589 42.8511 59.1702 42.9992 58.8782 43.2738C58.5865 43.5466 58.4091 43.9198 58.3818 44.3182H61.4467C61.4289 43.9146 61.2554 43.5336 60.9626 43.2552C60.6917 42.9994 60.3322 42.8583 59.9595 42.8618Z" fill="#191918"/>
<path d="M63.6467 43.3254C63.7455 43.0735 63.9224 42.86 64.1515 42.7161C64.3807 42.5722 64.6499 42.5056 64.9196 42.5261V42.8928C64.583 42.8837 64.2565 43.0081 64.0113 43.2389C63.8825 43.3759 63.7835 43.5383 63.7208 43.7156C63.658 43.8929 63.6328 44.0813 63.6467 44.2689V46.3887H63.2656V42.5776H63.6467V43.3254Z" fill="#191918"/>
<path d="M69.0905 42.5801H69.5024L67.8546 46.7414C67.7306 47.0868 67.5174 47.3931 67.2367 47.6293C66.9913 47.8375 66.6738 47.9404 66.3531 47.9157V47.5572C66.4711 47.5687 66.5903 47.5563 66.7035 47.521C66.8167 47.4856 66.9216 47.4279 67.0122 47.3512C67.2253 47.1673 67.3889 46.9329 67.488 46.6693L67.5724 46.4633L65.8196 42.5842H66.2315L67.7661 45.971L69.0905 42.5801Z" fill="#191918"/>
<path d="M72.3139 46.4754C72.0503 46.4806 71.7884 46.4321 71.5441 46.3329C71.2998 46.2338 71.0782 46.086 70.8927 45.8986C70.5194 45.523 70.3098 45.015 70.3098 44.4854C70.3098 43.9558 70.5194 43.4477 70.8927 43.0722C71.2716 42.7022 71.7802 42.4951 72.3098 42.4951C72.8393 42.4951 73.3479 42.7022 73.7269 43.0722C74.1002 43.4477 74.3098 43.9558 74.3098 44.4854C74.3098 45.015 74.1002 45.523 73.7269 45.8986C73.5426 46.0853 73.3223 46.2326 73.0795 46.3318C72.8366 46.4309 72.5762 46.4798 72.3139 46.4754ZM71.1666 45.637C71.4711 45.9394 71.8828 46.1091 72.3118 46.1091C72.7409 46.1091 73.1526 45.9394 73.4571 45.637C73.7544 45.3273 73.9204 44.9147 73.9204 44.4854C73.9204 44.0561 73.7544 43.6434 73.4571 43.3338C73.1526 43.0314 72.7409 42.8616 72.3118 42.8616C71.8828 42.8616 71.4711 43.0314 71.1666 43.3338C70.8659 43.6417 70.6976 44.055 70.6976 44.4854C70.6976 44.9158 70.8659 45.3291 71.1666 45.637Z" fill="#191918"/>
<path d="M77.5024 42.4956C77.7011 42.4851 77.8998 42.5164 78.0857 42.5873C78.2716 42.6583 78.4405 42.7674 78.5817 42.9076C78.7181 43.0569 78.8237 43.2316 78.8923 43.4219C78.9608 43.6121 78.9911 43.814 78.9813 44.016V46.3871H78.592V44.0201C78.6082 43.7105 78.5033 43.4069 78.2996 43.1734C78.1918 43.0665 78.0627 42.9836 77.9208 42.93C77.7788 42.8764 77.6271 42.8533 77.4757 42.8623C77.2972 42.8562 77.1194 42.8876 76.9538 42.9543C76.7881 43.021 76.6382 43.1216 76.5137 43.2496C76.2461 43.5624 76.1122 43.9679 76.1409 44.3785V46.3912H75.7578V42.5801H76.1389V43.3032C76.2599 43.048 76.4543 42.8348 76.6972 42.6909C76.9402 42.5471 77.2206 42.479 77.5024 42.4956Z" fill="#191918"/>
<path d="M82.3038 42.4951C82.5608 42.4864 82.8164 42.5353 83.052 42.6384C83.2876 42.7414 83.4972 42.8959 83.6653 43.0905C84.0101 43.4778 84.1962 43.981 84.1864 44.4996C84.188 44.5305 84.188 44.5614 84.1864 44.5923C84.1864 44.6314 84.1864 44.6623 84.1864 44.6829H80.726C80.7589 45.0797 80.9433 45.4486 81.2409 45.713C81.5036 45.9282 81.8233 46.0623 82.1609 46.0989C82.4985 46.1355 82.8394 46.073 83.1421 45.919C83.3591 45.8039 83.5391 45.6296 83.6611 45.4163L83.9969 45.6223C83.8355 45.8904 83.6031 46.1086 83.3254 46.2527C83.0198 46.412 82.6792 46.492 82.3347 46.4855C82.0689 46.495 81.8039 46.4502 81.556 46.3539C81.3081 46.2575 81.0825 46.1117 80.8928 45.9252C80.7059 45.7382 80.5593 45.5149 80.4622 45.2689C80.3652 45.023 80.3196 44.7597 80.3285 44.4955C80.3207 44.2336 80.3655 43.9729 80.4604 43.7288C80.5552 43.4846 80.6981 43.2619 80.8805 43.074C81.0642 42.8836 81.2858 42.7337 81.5309 42.634C81.776 42.5343 82.0393 42.487 82.3038 42.4951ZM82.3038 42.8618C81.9033 42.8521 81.5149 43.0001 81.2224 43.2738C80.9308 43.5466 80.7534 43.9199 80.726 44.3183H83.7909C83.7731 43.9147 83.5996 43.5337 83.3069 43.2553C83.0359 42.9994 82.6764 42.8584 82.3038 42.8618Z" fill="#191918"/>
</g>
<defs>
<clipPath id="clip0">
<rect width="85" height="48" fill="white"/>
</clipPath>
</defs>
</svg>
