<svg width="20" height="18" viewBox="0 0 20 18" fill="none" xmlns="http://www.w3.org/2000/svg">
<path d="M18.9999 7.94746H11.0001V0.883865C11.0001 0.396587 10.552 0.000976562 9.99994 0.000976562C9.44806 0.000976562 9 0.396587 9 0.883865V7.94746H0.999939C0.448059 7.94746 0 8.34307 0 8.83035C0 9.31779 0.448059 9.7134 0.999939 9.7134H9V16.7768C9 17.2643 9.44806 17.6599 9.99994 17.6599C10.552 17.6599 11.0001 17.2643 11.0001 16.7768V9.7134H18.9999C19.552 9.7134 20.0001 9.31779 20.0001 8.83035C20.0001 8.34307 19.552 7.94746 18.9999 7.94746Z" fill="#4F4F4F"/>
</svg>
